<svg width="121" height="120" viewBox="0 0 121 120" fill="none" xmlns="http://www.w3.org/2000/svg">
<path d="M48.5919 27.2738C48.5919 15.8594 39.3386 6.60614 27.9242 6.60614C16.5098 6.60614 7.25652 15.8594 7.25652 27.2738C7.25652 38.6883 16.5098 47.9415 27.9242 47.9415C39.3386 47.9415 48.5919 38.6883 48.5919 27.2738Z" stroke="#131313" stroke-width="13.2123"/>
<path d="M55.198 120H0.650383V65.4524H27.9242C42.9871 65.4524 55.198 77.6633 55.198 92.7262V120Z" fill="#131313"/>
<path d="M66.0938 0H120.641V54.5476H93.3676C78.3047 54.5476 66.0938 42.3367 66.0938 27.2738V0Z" fill="#131313"/>
<path d="M72.6999 92.7262C72.6999 104.141 81.9532 113.394 93.3676 113.394H114.035V92.7262C114.035 81.3117 104.782 72.0585 93.3676 72.0585C81.9532 72.0585 72.6999 81.3117 72.6999 92.7262Z" stroke="#131313" stroke-width="13.2123"/>
</svg>
