<svg width="131" height="130" viewBox="0 0 131 130" fill="none" xmlns="http://www.w3.org/2000/svg">
<path fill-rule="evenodd" clip-rule="evenodd" d="M9.72221 10.5423C0.777832 20.117 0.777832 35.078 0.777832 65C0.777832 94.922 0.777832 109.883 9.72221 119.458C10.2366 120.008 10.7695 120.541 11.3201 121.056C20.8948 130 35.8558 130 65.7778 130C95.6999 130 110.661 130 120.236 121.056C120.786 120.541 121.319 120.008 121.833 119.458C130.778 109.883 130.778 94.922 130.778 65C130.778 35.078 130.778 20.117 121.833 10.5423C121.319 9.9917 120.786 9.45875 120.236 8.94438C110.661 0 95.6999 0 65.7778 0C35.8558 0 20.8948 0 11.3201 8.94438C10.7695 9.45875 10.2366 9.9917 9.72221 10.5423ZM92.6807 82.881L96.9996 64.9974L65.7593 89.7593L88.3618 96.6376L84.0428 114.521L115.283 89.7593L92.6807 82.881Z" fill="#131313"/>
</svg>
