<svg width="35" height="35" viewBox="0 0 35 35" fill="none" xmlns="http://www.w3.org/2000/svg">
<path d="M25.8013 16.2218C25.6506 16.1496 25.4975 16.08 25.3423 16.0134C25.0722 11.0356 22.3522 8.18581 17.7851 8.15664C17.7644 8.15651 17.7438 8.15651 17.7231 8.15651C14.9913 8.15651 12.7194 9.32256 11.321 11.4444L13.8328 13.1674C14.8774 11.5825 16.5169 11.2446 17.7243 11.2446C17.7382 11.2446 17.7522 11.2446 17.766 11.2448C19.2698 11.2543 20.4046 11.6916 21.1391 12.5442C21.6735 13.165 22.031 14.0228 22.208 15.1054C20.8747 14.8788 19.4328 14.8091 17.8913 14.8975C13.5491 15.1476 10.7576 17.6801 10.945 21.1991C11.0402 22.9841 11.9294 24.5197 13.4489 25.5228C14.7336 26.3709 16.3882 26.7856 18.1078 26.6917C20.3787 26.5672 22.1603 25.7008 23.4031 24.1165C24.347 22.9133 24.944 21.3542 25.2076 19.3896C26.2899 20.0428 27.092 20.9023 27.5349 21.9355C28.2882 23.6919 28.3321 26.5781 25.9771 28.9311C23.9137 30.9925 21.4335 31.8843 17.6851 31.9118C13.5271 31.881 10.3825 30.5475 8.338 27.9484C6.42346 25.5146 5.43402 21.9993 5.39711 17.5C5.43402 13.0006 6.42346 9.48529 8.338 7.05153C10.3825 4.45246 13.5271 3.11901 17.685 3.08811C21.8731 3.11925 25.0725 4.45911 27.1953 7.07073C28.2362 8.35144 29.021 9.96202 29.5383 11.8399L32.4818 11.0546C31.8547 8.74311 30.868 6.7513 29.5252 5.09943C26.8038 1.75122 22.8236 0.0355739 17.6953 0H17.6748C12.5569 0.0354503 8.62128 1.75762 5.97736 5.11862C3.62463 8.1095 2.41102 12.2711 2.37024 17.4877L2.37012 17.5L2.37024 17.5123C2.41102 22.7289 3.62463 26.8906 5.97736 29.8814C8.62128 33.2423 12.5569 34.9646 17.6748 35H17.6953C22.2454 34.9685 25.4526 33.7772 28.0948 31.1374C31.5516 27.6839 31.4475 23.355 30.3081 20.6976C29.4908 18.7919 27.9323 17.2441 25.8013 16.2218ZM17.9452 23.608C16.0421 23.7152 14.0649 22.861 13.9674 21.0314C13.8952 19.6747 14.9329 18.161 18.062 17.9807C18.4204 17.96 18.772 17.9499 19.1174 17.9499C20.254 17.9499 21.3173 18.0603 22.284 18.2716C21.9235 22.7746 19.8085 23.5058 17.9452 23.608Z" fill="#2D2D2D"/>
</svg>
